<?xml version="1.0" standalone="no"?>
<!DOCTYPE svg PUBLIC "-//W3C//DTD SVG 20010904//EN"
 "http://www.w3.org/TR/2001/REC-SVG-20010904/DTD/svg10.dtd">
<svg version="1.0" xmlns="http://www.w3.org/2000/svg"
 width="1000.000000pt" height="1000.000000pt" viewBox="0 0 1000.000000 1000.000000"
 preserveAspectRatio="xMidYMid meet">
<metadata>
Created by potrace 1.14, written by Peter Selinger 2001-2017
</metadata>
<g transform="translate(0.000000,1000.000000) scale(0.100000,-0.100000)"
fill="#000000" stroke="none">
<path d="M9130 9229 c-25 -5 -52 -11 -60 -15 -8 -3 -17 -6 -20 -6 -70 -14
-450 -214 -623 -329 -32 -21 -62 -39 -67 -39 -5 0 -10 -3 -12 -8 -1 -4 -56
-43 -120 -85 -65 -43 -123 -84 -130 -90 -7 -7 -25 -18 -40 -26 -16 -8 -28 -18
-28 -23 0 -4 -6 -8 -12 -8 -7 0 -33 -18 -58 -39 l-45 -39 26 -26 25 -25 40 26
c21 15 41 30 42 35 2 4 7 8 12 8 8 0 206 135 243 166 10 8 29 20 43 26 13 6
24 15 24 20 0 4 5 8 11 8 5 0 36 17 67 38 185 125 485 285 627 334 72 25 193
30 218 9 25 -20 22 -108 -8 -197 -86 -257 -463 -814 -940 -1390 -27 -33 -63
-77 -80 -98 -16 -20 -41 -49 -55 -64 -14 -15 -43 -49 -65 -76 -22 -27 -44 -54
-50 -60 -5 -6 -50 -58 -100 -116 -49 -58 -102 -118 -117 -135 -14 -16 -35 -39
-45 -51 -47 -54 -123 -142 -145 -165 -12 -14 -57 -63 -98 -109 -41 -46 -100
-111 -131 -144 -31 -34 -78 -85 -105 -115 -51 -56 -57 -63 -219 -236 -483
-518 -1373 -1413 -1855 -1866 -25 -23 -115 -108 -200 -189 -85 -80 -177 -166
-204 -191 -27 -24 -70 -64 -96 -89 -42 -40 -150 -139 -293 -270 -28 -25 -64
-58 -82 -75 -18 -16 -66 -59 -106 -95 -63 -56 -107 -96 -188 -170 -10 -8 -48
-42 -86 -75 -39 -32 -84 -73 -101 -90 -17 -16 -46 -42 -65 -56 -19 -15 -46
-37 -60 -50 -22 -21 -73 -66 -175 -154 -13 -11 -45 -39 -71 -62 -26 -22 -100
-85 -163 -138 -63 -54 -130 -111 -149 -127 l-34 -29 -75 78 c-40 43 -92 100
-115 127 -23 27 -52 59 -64 72 -13 13 -23 26 -23 29 0 3 -13 20 -30 38 -16 18
-30 38 -30 45 0 6 -4 12 -8 12 -8 0 -72 85 -72 96 0 3 -8 13 -18 24 -9 10 -48
69 -87 131 -93 151 -86 137 -176 309 -148 279 -294 722 -335 1018 -3 20 -7 46
-9 57 -2 11 -6 45 -9 75 -4 30 -9 69 -11 85 -24 186 -24 619 1 737 2 12 6 49
9 80 2 32 6 61 9 66 3 5 8 29 10 53 3 24 8 55 11 69 2 14 7 36 10 50 3 14 12
54 19 90 8 36 17 75 20 88 3 12 8 30 10 40 4 14 48 158 61 200 3 7 4 14 5 17
0 3 7 19 15 35 9 17 13 30 9 30 -4 0 -2 6 3 13 5 6 18 35 28 62 10 28 23 56
29 64 6 8 10 22 8 33 -2 10 2 18 7 18 6 0 11 6 11 13 0 14 12 40 97 215 31 61
59 112 63 112 4 0 11 12 15 27 3 15 10 30 13 33 10 7 62 88 62 95 0 9 53 79
63 83 4 2 7 8 7 14 0 10 170 247 200 279 8 9 38 42 65 74 90 105 283 294 399
390 27 22 58 48 70 59 11 10 46 37 76 60 30 22 57 43 60 46 13 13 102 70 109
70 5 0 11 4 13 9 3 9 231 151 242 151 3 0 24 11 46 25 58 36 338 175 354 175
2 0 21 8 42 17 22 9 41 17 44 18 3 1 12 4 20 8 82 33 438 141 508 153 14 3 33
9 42 14 10 5 19 7 22 5 2 -3 20 0 39 5 19 6 54 13 79 16 47 6 68 9 110 18 14
3 52 8 85 11 33 2 69 6 80 9 97 20 599 29 755 13 130 -14 144 -16 175 -21 17
-3 57 -8 90 -11 33 -4 64 -9 68 -12 5 -3 23 -7 40 -8 48 -4 248 -47 322 -69 6
-1 30 -9 55 -16 25 -7 50 -14 56 -16 26 -5 233 -78 271 -95 24 -10 47 -19 53
-19 6 0 18 -4 28 -9 9 -5 28 -13 42 -19 41 -16 90 -38 173 -76 42 -20 79 -36
81 -36 2 0 34 -14 72 -32 38 -17 72 -31 77 -30 4 1 7 -2 7 -7 0 -7 21 -17 50
-25 17 -4 106 -52 108 -58 2 -5 8 -8 13 -8 18 0 -1 20 -44 47 -23 14 -47 31
-54 37 -21 19 -36 30 -85 65 -27 19 -48 38 -48 43 0 5 -4 7 -9 4 -5 -4 -11 -3
-13 2 -4 10 -104 82 -114 82 -4 0 -15 6 -23 14 -9 7 -65 39 -126 71 -60 32
-114 61 -120 65 -5 4 -50 29 -100 55 -49 26 -124 66 -165 88 -139 75 -205 105
-312 141 -114 38 -385 116 -396 114 -4 -1 -14 1 -22 5 -14 5 -164 36 -205 41
-11 2 -56 9 -100 15 -44 7 -96 14 -115 17 -19 3 -57 7 -85 9 -27 3 -66 7 -85
10 -193 26 -556 22 -885 -10 -103 -10 -377 -55 -405 -65 -3 -1 -8 -2 -12 -1
-3 0 -28 -6 -54 -14 -27 -8 -50 -12 -52 -10 -2 2 -21 -2 -41 -10 -31 -12 -94
-30 -141 -40 -75 -17 -388 -122 -407 -138 -7 -5 -13 -7 -13 -4 0 9 -297 -119
-310 -133 -3 -3 -32 -18 -65 -34 -48 -24 -163 -89 -303 -171 -9 -6 -64 -42
-121 -80 -58 -39 -112 -74 -120 -80 -9 -5 -18 -12 -21 -15 -3 -3 -50 -41 -105
-85 -210 -167 -480 -428 -600 -580 -22 -27 -42 -52 -45 -55 -16 -14 -176 -239
-242 -340 -121 -185 -232 -389 -300 -550 -6 -14 -16 -36 -23 -50 -7 -14 -18
-43 -25 -65 -7 -22 -18 -49 -23 -60 -6 -11 -12 -22 -12 -25 -3 -17 -49 -146
-54 -150 -3 -3 -6 -9 -6 -15 -1 -5 -9 -37 -20 -70 -10 -33 -20 -64 -21 -70 -2
-5 -7 -25 -13 -42 -5 -18 -7 -33 -4 -33 3 0 1 -6 -4 -12 -6 -7 -14 -31 -18
-53 -5 -22 -9 -44 -11 -50 -9 -35 -33 -157 -38 -190 -4 -23 -9 -52 -11 -65 -3
-14 -8 -43 -10 -65 -3 -22 -7 -50 -10 -63 -2 -13 -7 -53 -11 -90 -3 -37 -8
-83 -10 -102 -2 -19 -6 -105 -9 -190 -3 -85 -6 -159 -6 -165 -1 -5 -1 -14 0
-18 1 -5 4 -54 6 -110 3 -56 8 -129 11 -162 3 -33 7 -80 9 -105 2 -25 6 -58 8
-75 3 -16 11 -64 16 -105 6 -41 13 -86 16 -100 3 -14 8 -41 11 -60 3 -19 12
-62 20 -95 8 -33 16 -69 18 -80 3 -11 19 -67 36 -125 18 -58 33 -112 35 -120
1 -8 5 -22 8 -30 3 -8 22 -60 42 -115 54 -148 56 -155 87 -223 15 -34 28 -65
28 -68 0 -9 123 -252 149 -294 11 -19 25 -44 30 -55 5 -11 43 -73 85 -138 42
-66 76 -123 76 -127 0 -5 3 -10 8 -12 4 -1 41 -50 82 -108 40 -58 81 -112 89
-122 9 -9 26 -29 38 -45 59 -78 198 -228 343 -371 80 -79 131 -135 124 -140
-5 -4 -68 -52 -138 -107 -70 -55 -138 -107 -149 -115 -32 -22 -270 -198 -282
-208 -6 -5 -24 -17 -40 -28 -17 -10 -32 -21 -35 -25 -13 -18 -480 -325 -590
-388 -154 -89 -344 -182 -430 -211 -36 -12 -99 -24 -142 -27 -76 -6 -76 -6
-91 23 -16 32 -15 89 4 156 7 24 13 48 15 55 4 23 106 227 120 241 8 7 14 17
14 22 0 4 18 37 40 71 22 35 47 78 56 94 14 25 85 129 196 287 13 18 26 35 31
36 4 2 7 10 7 17 0 7 4 15 8 17 4 2 48 57 97 123 48 66 93 125 99 130 6 6 31
37 56 70 24 33 52 69 61 80 10 11 60 74 113 139 88 109 95 121 83 140 -16 23
-37 33 -37 17 0 -6 -8 -19 -17 -29 -22 -22 -45 -51 -98 -117 -21 -27 -44 -54
-50 -60 -6 -5 -22 -26 -35 -45 -13 -19 -27 -37 -30 -40 -3 -3 -21 -25 -40 -50
-19 -25 -37 -47 -40 -50 -4 -3 -26 -32 -51 -65 -24 -33 -46 -62 -49 -65 -3 -3
-17 -21 -30 -40 -14 -19 -28 -39 -32 -45 -5 -5 -22 -28 -38 -50 -16 -22 -33
-44 -38 -50 -102 -127 -312 -462 -392 -624 -68 -137 -91 -211 -93 -297 -2 -83
11 -115 61 -146 130 -80 447 45 959 378 114 74 373 252 383 263 3 4 34 26 70
50 36 25 67 48 70 51 3 3 35 27 72 53 36 26 73 53 80 59 8 7 21 18 30 23 18
12 181 136 188 144 3 3 32 27 66 53 l61 47 39 -32 c21 -17 41 -34 44 -37 3 -4
32 -26 65 -51 33 -24 62 -47 65 -50 16 -20 365 -245 457 -295 37 -20 76 -44
86 -52 9 -8 17 -12 17 -9 0 4 21 -6 47 -21 49 -29 343 -162 357 -162 4 0 24
-7 44 -16 21 -9 46 -20 57 -24 29 -12 177 -61 195 -65 8 -2 41 -12 73 -23 31
-11 57 -19 57 -17 0 2 25 -5 55 -15 30 -10 55 -17 55 -14 0 3 8 0 17 -5 10 -5
36 -12 58 -15 22 -3 76 -13 120 -21 101 -18 190 -31 275 -39 19 -2 64 -8 100
-12 36 -4 75 -8 88 -8 12 0 22 -2 22 -5 0 -4 21 -7 48 -7 26 -1 99 -4 162 -8
205 -12 450 -5 660 18 30 3 75 8 100 11 25 2 56 6 70 9 24 5 74 12 153 21 21
3 47 9 56 15 10 5 21 7 24 4 2 -3 42 4 88 16 46 11 97 23 113 26 16 3 33 7 37
10 7 4 111 33 174 49 6 1 17 5 25 8 8 4 56 20 105 36 79 25 163 56 285 103 19
7 38 18 42 23 4 6 8 6 8 2 0 -4 10 -2 23 5 12 7 24 13 27 13 11 3 185 89 190
94 3 3 43 26 90 50 169 88 473 282 556 356 7 6 31 26 55 45 61 49 313 290 304
290 -1 0 31 33 72 73 42 42 68 74 59 74 -9 0 -16 -4 -16 -8 0 -4 -9 -11 -20
-14 -11 -3 -26 -12 -32 -18 -22 -21 -223 -141 -358 -215 -120 -65 -155 -85
-162 -96 -4 -6 -8 -7 -8 -2 0 5 -8 2 -17 -6 -35 -30 -334 -184 -454 -233 -122
-51 -355 -128 -514 -171 -49 -14 -97 -27 -105 -29 -52 -14 -204 -45 -250 -50
-30 -4 -57 -8 -60 -10 -5 -3 -90 -14 -151 -20 -15 -1 -31 -5 -37 -9 -6 -3 -13
-2 -17 4 -4 6 -11 7 -18 3 -6 -3 -27 -8 -46 -9 -20 -2 -65 -5 -101 -8 -83 -7
-375 -7 -460 -1 -77 5 -173 14 -215 20 -16 2 -52 7 -80 10 -27 3 -75 10 -105
15 -30 5 -71 12 -90 15 -19 3 -54 10 -76 15 -23 5 -56 12 -75 14 -19 3 -59 12
-89 21 -191 55 -219 63 -265 81 -11 4 -24 8 -30 10 -10 2 -103 36 -191 68
-100 37 -397 175 -402 189 -2 4 -8 7 -14 7 -12 0 -209 117 -298 177 -92 62
-192 132 -210 146 -79 63 -194 159 -231 195 -26 23 -55 50 -65 57 -18 14 -17
16 17 47 45 42 78 70 197 171 53 45 102 86 108 92 20 18 128 111 209 181 44
38 85 73 91 79 6 5 42 37 80 70 37 33 75 67 84 75 9 8 45 40 80 70 35 30 78
69 96 85 17 17 61 57 98 89 37 33 80 71 95 85 16 14 71 64 122 111 52 47 108
99 125 115 18 17 74 68 125 115 51 47 106 98 123 114 446 415 708 669 1261
1221 269 270 562 566 650 659 88 93 179 189 201 212 69 73 251 267 280 299 15
17 57 62 93 100 36 39 100 108 141 154 41 46 86 96 100 111 38 41 98 109 165
185 33 38 67 76 75 85 16 17 181 208 215 249 11 13 34 40 52 60 31 36 180 213
244 292 19 22 41 49 49 59 8 10 26 33 40 50 14 18 30 37 35 44 6 6 42 52 80
101 38 50 72 92 75 95 34 32 340 461 433 608 67 107 97 157 162 278 30 56 82
183 91 219 28 128 10 220 -50 250 -38 20 -135 27 -196 14z"/>
<path d="M7213 7993 c-33 -27 -77 -61 -98 -78 -21 -16 -43 -34 -49 -40 -6 -5
-45 -37 -86 -70 -41 -33 -80 -64 -86 -70 -6 -5 -30 -26 -54 -45 -24 -19 -78
-64 -119 -99 -42 -35 -96 -80 -120 -100 -24 -20 -49 -41 -55 -46 -6 -6 -38
-33 -71 -60 -33 -28 -62 -52 -65 -55 -3 -3 -36 -32 -75 -65 -38 -33 -81 -70
-95 -82 -14 -12 -36 -32 -50 -43 -54 -46 -156 -136 -176 -156 -12 -11 -33 -29
-46 -40 -14 -11 -56 -47 -94 -81 -38 -34 -80 -71 -93 -83 -14 -11 -61 -53
-105 -93 -44 -40 -92 -83 -108 -97 -16 -14 -48 -43 -71 -65 -24 -22 -85 -78
-137 -125 -51 -47 -105 -96 -120 -110 -93 -86 -260 -241 -296 -275 -23 -22
-97 -92 -165 -155 -525 -493 -1296 -1260 -1765 -1755 -83 -88 -186 -196 -227
-240 -42 -44 -77 -87 -77 -96 0 -9 6 -29 14 -44 l14 -27 59 62 c267 285 475
501 740 770 418 423 736 738 1073 1060 173 166 176 168 354 335 65 61 132 124
150 140 26 25 125 116 281 260 91 83 206 189 223 203 20 18 159 142 198 177
12 11 52 47 90 80 37 33 78 69 90 80 12 11 44 39 71 61 26 23 57 50 69 60 22
19 133 117 164 144 87 76 249 214 400 340 29 25 58 50 64 55 6 6 60 51 121
100 60 50 119 97 130 107 11 9 40 32 65 52 25 20 52 42 60 49 8 7 37 31 65 53
27 21 61 49 75 62 14 12 28 22 32 22 3 0 14 8 23 17 16 15 15 18 -16 34 -19
10 -37 18 -40 19 -4 0 -33 -21 -66 -47z"/>
</g>
</svg>
